<svg width="8" height="5" viewBox="0 0 8 5" fill="none" xmlns="http://www.w3.org/2000/svg">
<path d="M0.191927 0.642938C0.16174 0.686077 0.147929 0.734512 0.151974 0.783044C0.156019 0.831577 0.177768 0.878374 0.214888 0.918414L3.44376 4.38519C3.47677 4.42062 3.52085 4.44957 3.57221 4.46956C3.62357 4.48956 3.68068 4.5 3.73866 4.5C3.79664 4.5 3.85375 4.48956 3.90511 4.46956C3.95647 4.44957 4.00055 4.42062 4.03356 4.38519L7.26243 0.918414C7.29968 0.878405 7.32148 0.831586 7.3255 0.783026C7.32951 0.734466 7.31557 0.686015 7.2852 0.642919C7.25483 0.599824 7.20917 0.563726 7.15318 0.538534C7.09718 0.513342 7.03298 0.500016 6.96753 0.5L0.509791 0.5C0.444304 0.499992 0.380062 0.513308 0.32403 0.538505C0.267998 0.563701 0.222313 0.599817 0.191927 0.642938Z" fill="#9B9A97"/>
</svg>
