<svg width="8" height="5" viewBox="0 0 8 5" fill="none" xmlns="http://www.w3.org/2000/svg">
<path d="M0.865755 0.642938C0.835568 0.686077 0.821757 0.734512 0.825802 0.783044C0.829847 0.831577 0.851596 0.878374 0.888716 0.918414L4.11759 4.38519C4.1506 4.42062 4.19468 4.44957 4.24604 4.46956C4.2974 4.48956 4.35451 4.5 4.41249 4.5C4.47047 4.5 4.52758 4.48956 4.57894 4.46956C4.6303 4.44957 4.67437 4.42062 4.70739 4.38519L7.93626 0.918414C7.9735 0.878405 7.99531 0.831586 7.99932 0.783026C8.00334 0.734466 7.9894 0.686015 7.95903 0.642919C7.92865 0.599824 7.883 0.563726 7.827 0.538534C7.77101 0.513342 7.70681 0.500016 7.64136 0.5L1.18362 0.5C1.11813 0.499992 1.05389 0.513308 0.997858 0.538505C0.941826 0.563701 0.896142 0.599817 0.865755 0.642938Z" fill="#9B9A97"/>
</svg>
