<svg width="14" height="15" viewBox="0 0 14 15" fill="none" xmlns="http://www.w3.org/2000/svg">
<path d="M7 10.9045C6.75208 10.9045 6.54412 10.8182 6.37612 10.6456C6.20812 10.473 6.12442 10.2597 6.125 10.0056V3.57865L4.48438 5.26404C4.30938 5.44382 4.10521 5.53371 3.87188 5.53371C3.63854 5.53371 3.42708 5.43633 3.2375 5.24157C3.0625 5.0618 2.97879 4.84846 2.98638 4.60157C2.99396 4.35468 3.07767 4.14854 3.2375 3.98315L6.3875 0.747191C6.475 0.657303 6.56979 0.593783 6.67187 0.556629C6.77396 0.519475 6.88333 0.500599 7 0.5C7.11667 0.5 7.22604 0.518876 7.32812 0.556629C7.43021 0.594382 7.525 0.657902 7.6125 0.747191L10.7625 3.98315C10.9375 4.16292 11.0215 4.37655 11.0145 4.62404C11.0075 4.87153 10.9235 5.07738 10.7625 5.24157C10.5875 5.42135 10.3795 5.51513 10.1386 5.52292C9.89771 5.53071 9.69004 5.44442 9.51562 5.26404L7.875 3.57865V10.0056C7.875 10.2603 7.791 10.4739 7.623 10.6465C7.455 10.8191 7.24733 10.9051 7 10.9045ZM1.75 14.5C1.26875 14.5 0.856626 14.3238 0.513626 13.9715C0.170626 13.6191 -0.000581848 13.196 1.48557e-06 12.7022V10.9045C1.48557e-06 10.6498 0.0840015 10.4362 0.252001 10.2636C0.420001 10.091 0.627668 10.005 0.875001 10.0056C1.12292 10.0056 1.33088 10.0919 1.49888 10.2645C1.66688 10.4371 1.75058 10.6504 1.75 10.9045V12.7022H12.25V10.9045C12.25 10.6498 12.334 10.4362 12.502 10.2636C12.67 10.091 12.8777 10.005 13.125 10.0056C13.3729 10.0056 13.5809 10.0919 13.7489 10.2645C13.9169 10.4371 14.0006 10.6504 14 10.9045V12.7022C14 13.1966 13.8285 13.62 13.4855 13.9724C13.1425 14.3247 12.7307 14.5006 12.25 14.5H1.75Z" fill="#3D3A34"/>
</svg>
