<svg width="24" height="27" viewBox="0 0 24 27" fill="none" xmlns="http://www.w3.org/2000/svg">
<path d="M22.4441 19.3391L20.3732 17.954C19.6941 17.5035 18.7998 17.6178 18.2283 18.196C18.2149 18.2095 18.2014 18.2229 18.1947 18.2297C17.6165 18.8012 17.5022 19.6954 17.9594 20.3745L18.7326 21.531L19.3445 22.4454C19.9092 23.2926 21.0993 23.454 21.8591 22.7682C22.1819 22.4791 22.4912 22.1698 22.7803 21.847C23.4594 21.094 23.3047 19.9039 22.4575 19.3391" fill="#19B250"/>
<path d="M14.7879 21.6913C14.6265 20.8912 13.9205 20.3398 13.1002 20.3398H13.0532C12.2329 20.3398 11.5202 20.8912 11.3655 21.6913L10.8814 24.132C10.6797 25.1271 11.4059 26.0819 12.4211 26.1357C12.8515 26.1559 13.2885 26.1559 13.7255 26.1357C14.7476 26.0819 15.4737 25.1338 15.2787 24.132L14.7946 21.6913H14.7879Z" fill="#19B250"/>
<path d="M7.91549 18.1899C7.34398 17.6116 6.44972 17.5041 5.77063 17.9546L4.61415 18.7278L3.69972 19.3396C2.85253 19.9044 2.69116 21.0945 3.37698 21.8543C3.6661 22.1771 3.97539 22.4864 4.29813 22.7755C5.05119 23.4546 6.24129 23.2999 6.80608 22.4527L7.41794 21.5383L8.18444 20.3885C8.64165 19.7094 8.52735 18.8152 7.94239 18.237L7.90205 18.1966L7.91549 18.1899Z" fill="#19B250"/>
<path d="M5.81098 13.1059V13.0521C5.81098 12.2318 5.26635 11.5191 4.45951 11.3577L3.10132 11.0888L2.0188 10.8736C1.02369 10.6719 0.0621944 11.3981 0.0151284 12.4133C-0.00504279 12.8437 -0.00504279 13.2807 0.0151284 13.7177C0.0689181 14.733 1.01696 15.4659 2.0188 15.2709L4.45951 14.7868C5.25963 14.6254 5.81098 13.9195 5.81098 13.1059Z" fill="#19B250"/>
<path d="M7.43146 4.62196L6.8196 3.70752C6.25481 2.86034 5.06471 2.69898 4.30493 3.3848C3.98219 3.68064 3.6729 3.98321 3.38378 4.31268C2.70469 5.06573 2.86606 6.25582 3.70652 6.82061L5.77743 8.20569C6.45652 8.65618 7.35078 8.54189 7.92229 7.96365C7.93574 7.9502 7.94919 7.93676 7.96264 7.92331C8.54088 7.35179 8.65518 6.45754 8.19797 5.77844L7.42474 4.62196H7.43146Z" fill="#19B250"/>
<path d="M13.7388 0.0151284C13.3084 -0.00504279 12.8714 -0.00504279 12.4276 0.0151284C11.4124 0.0689181 10.6795 1.01697 10.8812 2.0188L11.3653 4.4595C11.5267 5.25962 12.2326 5.81097 13.0462 5.81097H13.1C13.9203 5.81097 14.633 5.26634 14.7944 4.4595L15.0633 3.10131L15.2785 2.0188C15.4802 1.02369 14.754 0.0689181 13.7388 0.0151284Z" fill="#19B250"/>
<path d="M18.2302 7.96155C18.8017 8.53979 19.696 8.6541 20.3751 8.19688L21.5316 7.42364L22.446 6.81178C23.2932 6.24699 23.4546 5.05689 22.7687 4.29711C22.4729 3.97437 22.1703 3.66509 21.8476 3.37597C21.0945 2.69687 19.9044 2.85825 19.3396 3.69871L18.7278 4.61313L17.9546 5.76961C17.5041 6.44871 17.6116 7.34296 18.1899 7.91448C18.2033 7.92793 18.2168 7.94136 18.2302 7.94809" fill="#19B250"/>
</svg>
