<svg width="12" height="15" viewBox="0 0 12 15" fill="none" xmlns="http://www.w3.org/2000/svg">
<path fill-rule="evenodd" clip-rule="evenodd" d="M1.28189 0H6.97256C7.52079 0 8.04497 0.22504 8.42256 0.622501L11.2953 3.6464C11.6484 4.0181 11.8453 4.51121 11.8453 5.0239V13.5669C11.8453 13.677 11.8381 13.7873 11.811 13.8941C11.6982 14.3392 11.3868 15 10.7889 15H1.28189C0.859353 15 0.0142825 14.7465 0.0142825 13.7324V1.61836C0.0142825 1.55732 0.0106188 1.49751 0.0069344 1.43737C0.00490697 1.40428 0.00287328 1.37108 0.00144038 1.33752C-0.0206884 0.819217 0.203437 0 1.28189 0ZM6.19923 1.72426V5.5C6.19923 5.66569 6.33355 5.8 6.49923 5.8H10.275C10.5422 5.8 10.6761 5.47686 10.4871 5.28787L6.71136 1.51213C6.52237 1.32314 6.19923 1.45699 6.19923 1.72426Z" fill="#9B9A97"/>
</svg>
