<svg width="7" height="11" viewBox="0 0 7 11" fill="#3D3A34" xmlns="http://www.w3.org/2000/svg">
<path d="M5.35373 5.49915L1.01982 9.69812L5.35373 5.49915ZM5.35373 5.49915L1.01973 1.30092L1.01967 1.30087C0.912193 1.19664 0.850427 1.05508 0.850427 0.905861C0.850427 0.756645 0.912188 0.615091 1.01965 0.51087C1.07269 0.459422 1.13563 0.418977 1.20454 0.39151C1.27344 0.364048 1.34717 0.35 1.42147 0.35C1.49577 0.35 1.56951 0.364048 1.63841 0.39151C1.70729 0.418966 1.77021 0.45939 1.82323 0.510809C1.82325 0.510829 1.82327 0.51085 1.82329 0.51087L6.55033 5.09073L6.55033 5.09074C6.66156 5.19851 6.72544 5.34489 6.72544 5.49914C6.72544 5.65338 6.66157 5.79975 6.55035 5.90752C6.55034 5.90753 6.55033 5.90754 6.55033 5.90754L1.82329 10.4891C1.77025 10.5406 1.70731 10.581 1.63841 10.6085C1.56951 10.636 1.49577 10.65 1.42147 10.65C1.34718 10.65 1.27344 10.636 1.20454 10.6085C1.13563 10.581 1.07269 10.5406 1.01965 10.4891M5.35373 5.49915L1.12409 9.80596L1.01972 9.69823C0.911947 9.80248 0.849982 9.94424 0.849982 10.0937C0.849982 10.2431 0.911922 10.3849 1.01965 10.4891M1.01965 10.4891C1.01971 10.4892 1.01977 10.4892 1.01982 10.4893L1.12409 10.3815L1.01965 10.4891Z" fill="#3D3A34" stroke="#3D3A34" stroke-width="0.3"/>
</svg>
