<svg width="7" height="11" viewBox="0 0 7 11" fill="#3D3A34" xmlns="http://www.w3.org/2000/svg">
<path d="M1.79715 5.50085L3.90855 3.45518L6.13105 1.30188L1.79715 5.50085ZM1.79715 5.50085L6.13115 9.69908L6.13121 9.69913C6.23869 9.80336 6.30045 9.94492 6.30045 10.0941C6.30045 10.2434 6.23869 10.3849 6.13123 10.4891C6.07819 10.5406 6.01525 10.581 5.94634 10.6085C5.87744 10.636 5.80371 10.65 5.72941 10.65C5.65511 10.65 5.58137 10.636 5.51247 10.6085C5.44359 10.581 5.38067 10.5406 5.32765 10.4892C5.32763 10.4892 5.32761 10.4892 5.32759 10.4891L0.600553 5.90927L0.60055 5.90926C0.489319 5.80149 0.425439 5.65511 0.425439 5.50086C0.425439 5.34662 0.489313 5.20025 0.600533 5.09248C0.600539 5.09247 0.600544 5.09246 0.60055 5.09246L2.96408 2.80165L5.32759 0.510869C5.38062 0.459421 5.44357 0.418976 5.51247 0.391509C5.58137 0.364046 5.65511 0.35 5.72941 0.35C5.8037 0.35 5.87744 0.364046 5.94634 0.391509C6.01525 0.418976 6.07819 0.459421 6.13123 0.510869M1.79715 5.50085L6.02679 1.19404L6.13116 1.30177C6.23893 1.19752 6.3009 1.05576 6.3009 0.906292C6.3009 0.756857 6.23896 0.615122 6.13123 0.510869M6.13123 0.510869C6.13117 0.510814 6.13111 0.510758 6.13105 0.510703L6.02679 0.618538L6.13123 0.510869Z" fill="#3D3A34" stroke="#3D3A34" stroke-width="0.3"/>
</svg>
