<svg width="14" height="16" viewBox="0 0 14 16" fill="none" xmlns="http://www.w3.org/2000/svg">
<path d="M3.60253 15.4287H9.88473C10.9306 15.4287 11.6074 14.793 11.6552 13.7402L12.1201 3.88965H12.872C13.2138 3.88965 13.4804 3.62988 13.4804 3.28809C13.4804 2.95312 13.2138 2.69336 12.872 2.69336H9.83003V1.66797C9.83003 0.62207 9.16703 0 8.03222 0H5.43457C4.30664 0 3.63671 0.62207 3.63671 1.66797V2.69336H0.60156C0.27343 2.69336 0 2.95312 0 3.28809C0 3.62988 0.27343 3.88965 0.60156 3.88965H1.36035L1.82519 13.7471C1.87304 14.7998 2.54296 15.4287 3.60253 15.4287ZM4.89453 1.72949C4.89453 1.37402 5.14062 1.14844 5.52343 1.14844H7.94335C8.32617 1.14844 8.57226 1.37402 8.57226 1.72949V2.69336H4.89453V1.72949ZM3.73242 14.2188C3.35644 14.2188 3.083 13.9453 3.0625 13.542L2.60449 3.88965H10.8554L10.4111 13.542C10.3974 13.9453 10.124 14.2188 9.73433 14.2188H3.73242ZM4.72363 13.1182C5.01074 13.1182 5.19531 12.9336 5.18847 12.667L4.98339 5.50293C4.97656 5.22949 4.78515 5.05176 4.51171 5.05176C4.22461 5.05176 4.04003 5.23633 4.04687 5.50293L4.25195 12.667C4.25878 12.9404 4.45019 13.1182 4.72363 13.1182ZM6.74023 13.1182C7.02734 13.1182 7.21875 12.9336 7.21875 12.667V5.50293C7.21875 5.23633 7.02734 5.05176 6.74023 5.05176C6.45312 5.05176 6.26171 5.23633 6.26171 5.50293V12.667C6.26171 12.9336 6.45312 13.1182 6.74023 13.1182ZM8.75683 13.1182C9.03023 13.1182 9.21483 12.9404 9.22163 12.667L9.43363 5.50293C9.44043 5.23633 9.24903 5.05176 8.96873 5.05176C8.69531 5.05176 8.5039 5.22949 8.49707 5.50293L8.28515 12.667C8.27832 12.9336 8.46972 13.1182 8.75683 13.1182Z" fill="#D98F8C"/>
</svg>
