<svg width="45" height="45" viewBox="0 0 45 45" fill="none" xmlns="http://www.w3.org/2000/svg">
<circle cx="22.5" cy="22.5" r="22.5" fill="#3D3A34"/>
<path d="M22.7557 32.2386C21.5852 32.2386 20.5398 32.0369 19.6193 31.6335C18.7045 31.2301 17.9801 30.6705 17.446 29.9545C16.9176 29.233 16.6335 28.3977 16.5938 27.4489H19.2699C19.304 27.9659 19.4773 28.4148 19.7898 28.7955C20.108 29.1705 20.5227 29.4602 21.0341 29.6648C21.5455 29.8693 22.1136 29.9716 22.7386 29.9716C23.4261 29.9716 24.0341 29.8523 24.5625 29.6136C25.0966 29.375 25.5142 29.0426 25.8153 28.6165C26.1165 28.1847 26.267 27.6875 26.267 27.125C26.267 26.5398 26.1165 26.0256 25.8153 25.5824C25.5199 25.1335 25.0852 24.7812 24.5114 24.5256C23.9432 24.2699 23.2557 24.142 22.4489 24.142H20.9744V21.9943H22.4489C23.0966 21.9943 23.6648 21.8778 24.1534 21.6449C24.6477 21.4119 25.0341 21.0881 25.3125 20.6733C25.5909 20.2528 25.7301 19.7614 25.7301 19.1989C25.7301 18.6591 25.608 18.1903 25.3636 17.7926C25.125 17.3892 24.7841 17.0739 24.3409 16.8466C23.9034 16.6193 23.3864 16.5057 22.7898 16.5057C22.2216 16.5057 21.6903 16.6108 21.196 16.821C20.7074 17.0256 20.3097 17.321 20.0028 17.7074C19.696 18.0881 19.5313 18.5455 19.5085 19.0795H16.9602C16.9886 18.1364 17.267 17.3068 17.7955 16.5909C18.3295 15.875 19.0341 15.3153 19.9091 14.9119C20.7841 14.5085 21.7557 14.3068 22.8239 14.3068C23.9432 14.3068 24.9091 14.5256 25.7216 14.9631C26.5398 15.3949 27.1705 15.9716 27.6136 16.6932C28.0625 17.4148 28.2841 18.2045 28.2784 19.0625C28.2841 20.0398 28.0114 20.8693 27.4602 21.5511C26.9148 22.233 26.1875 22.6903 25.2784 22.9233V23.0597C26.4375 23.2358 27.3352 23.696 27.9716 24.4403C28.6136 25.1847 28.9318 26.108 28.9261 27.2102C28.9318 28.1705 28.6648 29.0312 28.125 29.7926C27.5909 30.554 26.8608 31.1534 25.9347 31.5909C25.0085 32.0227 23.9489 32.2386 22.7557 32.2386Z" fill="white"/>
</svg>
