<svg width="45" height="45" viewBox="0 0 45 45" fill="none" xmlns="http://www.w3.org/2000/svg">
<circle cx="22.5" cy="22.5" r="22.5" fill="#3D3A34"/>
<path d="M16.679 32V30.0909L22.5852 23.9716C23.2159 23.3068 23.7358 22.7244 24.1449 22.2244C24.5597 21.7187 24.8693 21.2386 25.0739 20.7841C25.2784 20.3295 25.3807 19.8466 25.3807 19.3352C25.3807 18.7557 25.2443 18.2557 24.9716 17.8352C24.6989 17.4091 24.3267 17.0824 23.8551 16.8551C23.3835 16.6222 22.8523 16.5057 22.2614 16.5057C21.6364 16.5057 21.0909 16.6335 20.625 16.8892C20.1591 17.1449 19.8011 17.5057 19.5511 17.9716C19.3011 18.4375 19.1761 18.983 19.1761 19.608H16.6619C16.6619 18.5455 16.9063 17.6165 17.3949 16.821C17.8835 16.0256 18.554 15.4091 19.4062 14.9716C20.2585 14.5284 21.2273 14.3068 22.3125 14.3068C23.4091 14.3068 24.375 14.5256 25.2102 14.9631C26.0511 15.3949 26.7074 15.9858 27.179 16.7358C27.6506 17.4801 27.8864 18.321 27.8864 19.2585C27.8864 19.9062 27.7642 20.5398 27.5199 21.1591C27.2813 21.7784 26.8636 22.4687 26.267 23.2301C25.6705 23.9858 24.8409 24.9034 23.7784 25.983L20.3097 29.6136V29.7415H28.1676V32H16.679Z" fill="white"/>
</svg>
